<svg xmlns="http://www.w3.org/2000/svg" viewBox="0 0 900 460" role="img" aria-labelledby="title desc">
  <title id="title">Teen mentor teaching math</title>
  <desc id="desc">Playful clipart of a teenage mentor explaining math on a board to younger students.</desc>
  <rect width="900" height="460" rx="42" fill="#ddd5ff"/>
  <circle cx="740" cy="84" r="48" fill="#ffd166"/>
  <rect x="248" y="84" width="404" height="216" rx="30" fill="#25364f"/>
  <rect x="276" y="112" width="348" height="160" rx="20" fill="#405b86"/>
  <path d="M326 158h74M326 202h140M488 154l38 38 40-62M492 230h72" stroke="#fffaf0" stroke-width="12" stroke-linecap="round" stroke-linejoin="round"/>
  <path d="M334 234c31-51 62-51 94 0" stroke="#ffd166" stroke-width="10" stroke-linecap="round"/>
  <g transform="translate(117 150)">
    <circle cx="74" cy="42" r="38" fill="#ffd7b3" stroke="#25364f" stroke-width="8"/>
    <path d="M37 35c9-43 72-45 78-5-21 7-43-13-61 8-7 8-12 7-17-3z" fill="#8a4f3d"/>
    <rect x="24" y="88" width="100" height="132" rx="30" fill="#ff8b7a" stroke="#25364f" stroke-width="8"/>
    <path d="M117 124l74-39" stroke="#25364f" stroke-width="14" stroke-linecap="round"/>
  </g>
  <g transform="translate(654 180)">
    <circle cx="58" cy="38" r="32" fill="#f7c9a1" stroke="#25364f" stroke-width="7"/>
    <path d="M29 34c3-35 55-38 60-5-15 9-38-8-50 9-5 6-8 5-10-4z" fill="#30251f"/>
    <rect x="16" y="78" width="84" height="112" rx="26" fill="#c9f7df" stroke="#25364f" stroke-width="7"/>
  </g>
  <g transform="translate(487 299)">
    <circle cx="42" cy="30" r="26" fill="#f4bf96" stroke="#25364f" stroke-width="6"/>
    <path d="M18 28c3-27 42-33 49-6-13 6-31-8-39 7-4 5-7 5-10-1z" fill="#5f3d2d"/>
    <rect x="12" y="60" width="62" height="78" rx="20" fill="#ffd4e5" stroke="#25364f" stroke-width="6"/>
  </g>
  <path d="M160 91l24 12 12 24 12-24 24-12-24-12-12-24-12 24-24 12z" fill="#fff" stroke="#25364f" stroke-width="5"/>
  <path d="M706 336l18 9 9 18 9-18 18-9-18-9-9-18-9 18-18 9z" fill="#fff" stroke="#25364f" stroke-width="5"/>
</svg>
